Coordinates
version=1
nRows=49
nColumns=12
inDegrees=yes

Units are S.I. units (second, meters, Newtons, ...)
Angles are in degrees

endheader
time	SC_y	SC_z	SC_x	AC_y	AC_z	AC_x	GH_y	GH_z	GH_yy	EL_x	PS_y
       0.0              -27.65          37.78          21.75          59.49         -18.89          5.154         -39.63          63.79          151.6          62.09          75.56
   0.03445              -27.65          37.78          21.76          59.49         -18.89          5.154         -39.61          63.78          151.6          62.09          75.55
    0.0689              -27.65          37.77          21.76          59.49         -18.89          5.155         -39.59          63.77          151.5          62.09          75.54
    0.1034              -27.65          37.77          21.77          59.49         -18.89          5.156         -39.58          63.76          151.5          62.08          75.53
    0.1378              -27.65          37.76          21.77          59.49         -18.89          5.157         -39.56          63.75          151.4          62.07          75.52
    0.1723              -27.65          37.76          21.78          59.49         -18.89          5.158         -39.54          63.73          151.4          62.07           75.5
    0.2067              -27.65          37.75          21.78          59.49         -18.88          5.159         -39.52          63.72          151.3          62.06          75.49
    0.2412              -27.66          37.74          21.79          59.49         -18.88           5.16         -39.49          63.71          151.2          62.05          75.48
    0.2756              -27.66          37.73           21.8          59.49         -18.88          5.162         -39.47          63.69          151.2          62.05          75.46
    0.3101              -27.66          37.73           21.8          59.49         -18.88          5.163         -39.44          63.67          151.1          62.04          75.44
    0.3445              -27.66          37.72          21.81          59.49         -18.88          5.164         -39.41          63.66          151.0          62.03          75.42
     0.379              -27.66          37.71          21.82          59.49         -18.87          5.166         -39.38          63.64          151.0          62.02          75.41
    0.4134              -27.67           37.7          21.83          59.49         -18.87          5.167         -39.35          63.62          150.9          62.01          75.38
    0.4479              -27.67          37.68          21.84          59.49         -18.87          5.169         -39.32          63.59          150.8           62.0          75.36
    0.4823              -27.67          37.67          21.85          59.49         -18.86          5.171         -39.28          63.57          150.7          61.99          75.34
    0.5168              -27.68          37.66          21.86          59.49         -18.86          5.173         -39.24          63.54          150.6          61.98          75.31
    0.5512              -27.68          37.64          21.87          59.49         -18.86          5.175         -39.19          63.51          150.5          61.96          75.28
    0.5857              -27.68          37.63          21.89          59.49         -18.85          5.178         -39.14          63.48          150.3          61.95          75.25
    0.6201              -27.69          37.61           21.9          59.49         -18.85          5.181         -39.09          63.45          150.2          61.93          75.22
    0.6546              -27.69          37.59          21.92          59.48         -18.84          5.184         -39.03          63.41          150.0          61.91          75.18
     0.689               -27.7          37.57          21.94          59.48         -18.84          5.187         -38.97          63.37          149.9           61.9          75.14
    0.7235               -27.7          37.55          21.96          59.48         -18.83           5.19         -38.89          63.32          149.7          61.87          75.09
    0.7579              -27.71          37.52          21.98          59.48         -18.83          5.194         -38.82          63.27          149.5          61.85          75.04
    0.7924              -27.72           37.5           22.0          59.48         -18.82          5.199         -38.73          63.22          149.3          61.82          74.99
    0.8268              -27.72          37.46          22.03          59.48         -18.81          5.204         -38.63          63.16          149.0          61.79          74.93
    0.8613              -27.73          37.43          22.06          59.48          -18.8          5.209         -38.53          63.09          148.7          61.76          74.86
    0.8958              -27.74          37.39          22.09          59.48         -18.79          5.215          -38.4          63.01          148.4          61.73          74.78
    0.9302              -27.75          37.35          22.13          59.47         -18.78          5.222         -38.27          62.92          148.1          61.68          74.69
    0.9647              -27.76           37.3          22.17          59.47         -18.77           5.23         -38.12          62.83          147.7          61.64           74.6
    0.9991              -27.78          37.24          22.22          59.47         -18.76          5.238         -37.94          62.71          147.2          61.59          74.49
     1.034              -27.79          37.18          22.28          59.47         -18.74          5.248         -37.74          62.59          146.7          61.53          74.36
     1.068              -27.81           37.1          22.34          59.47         -18.72           5.26         -37.52          62.44          146.1          61.46          74.21
     1.102              -27.83          37.02          22.42          59.46          -18.7          5.273         -37.25          62.27          145.4          61.38          74.05
     1.137              -27.85          36.92           22.5          59.46         -18.68          5.288         -36.95          62.08          144.6          61.28          73.85
     1.171              -27.88           36.8           22.6          59.45         -18.65          5.306         -36.59          61.85          143.7          61.18          73.62
     1.206              -27.92          36.67          22.72          59.45         -18.61          5.328         -36.17          61.58          142.6          61.05          73.35
      1.24              -27.95          36.51          22.86          59.44         -18.57          5.353         -35.67          61.26          141.3           60.9          73.03
     1.275               -28.0          36.31          23.03          59.43         -18.52          5.383         -35.06          60.87          139.7          60.71          72.65
     1.309              -28.06          36.08          23.23          59.43         -18.46           5.42         -34.34          60.41          137.9          60.49          72.19
     1.344              -28.13          35.79          23.48          59.41         -18.39          5.464         -33.45          59.84          135.6          60.23          71.62
     1.378              -28.21          35.44          23.78           59.4          -18.3          5.519         -32.35          59.14          132.7          59.89          70.92
     1.413              -28.32           35.0          24.17          59.38         -18.19          5.588         -30.99          58.26          129.2          59.48          70.05
     1.447              -28.46          34.44          24.65          59.36         -18.05          5.675         -29.27          57.16          124.7          58.96          68.95
     1.481              -28.63          33.74          25.26          59.33         -17.87          5.785         -27.08          55.76          119.0           58.3          67.55
     1.516              -28.85          32.83          26.04           59.3         -17.65          5.926         -24.28          53.97          111.7          57.45          65.76
      1.55              -29.13          31.67          27.05          59.25         -17.35          6.106         -20.68          51.67          102.4          56.36          63.47
     1.585              -29.49          30.19          28.33           59.2         -16.98          6.337         -16.09          48.73          90.46          54.97          60.54
     1.619              -29.94          28.33          29.94          59.12         -16.51          6.628         -10.32          45.04          75.46          53.23          56.86
     1.654              -30.49          26.06          31.91          59.03         -15.94          6.982          -3.28          40.54          57.19           51.1          52.37
